<?xml version="1.0" encoding="UTF-8"?>
<svg xmlns="http://www.w3.org/2000/svg" xmlns:xlink="http://www.w3.org/1999/xlink" width="15pt" height="15pt" viewBox="0 0 15 15" version="1.1">
<g id="surface1">
<path style=" stroke:none;fill-rule:nonzero;fill:rgb(0%,0%,0%);fill-opacity:1;" d="M 12.199219 1.445312 C 11.996094 1.242188 11.664062 1.238281 11.457031 1.445312 L 5.734375 7.136719 L 3.554688 4.945312 C 3.457031 4.847656 3.324219 4.792969 3.1875 4.789062 C 3.046875 4.789062 2.914062 4.84375 2.816406 4.941406 L 0.15625 7.589844 C 0.0585938 7.6875 0.00390625 7.820312 0 7.960938 C 0 8.101562 0.0546875 8.230469 0.152344 8.328125 L 5.347656 13.550781 C 5.445312 13.648438 5.582031 13.707031 5.71875 13.707031 C 5.855469 13.707031 5.992188 13.652344 6.089844 13.554688 L 14.84375 4.851562 C 14.941406 4.753906 14.996094 4.617188 15 4.480469 C 15 4.339844 14.945312 4.207031 14.847656 4.109375 Z M 5.722656 12.4375 L 1.269531 7.960938 L 3.183594 6.058594 L 5.359375 8.246094 C 5.457031 8.34375 5.59375 8.398438 5.730469 8.402344 C 5.867188 8.410156 6.003906 8.347656 6.101562 8.25 L 11.828125 2.558594 L 13.730469 4.472656 Z M 5.722656 12.4375 "/>
</g>
</svg>
