<svg width="42" height="42" xmlns="http://www.w3.org/2000/svg">

 <g>
  <rect fill="none" id="canvas_background" height="44" width="44" y="-1" x="-1"/>
 </g>
 <g>
  <path id="svg_1" fill="none" d="m-12.649571,-6.239316l48,0l0,48l-48,0l0,-48z"/>
  <path stroke="null" fill="#ff7100" id="svg_2" d="m18.581197,30.410257l4,0l0,-12.17094l-4,0l0,12.17094zm2,-30c-11.05,0 -20,8.95 -20,20s8.95,20 20,20s20,-8.95 20,-20s-8.95,-20 -20,-20zm0,36c-8.82,0 -16,-7.18 -16,-16s7.18,-16 16,-16s16,7.18 16,16s-7.18,16 -16,16zm-2,-22l4,-0.08547l0,-3.91453l-4,0l0,4z"/>
 </g>
</svg>